<svg width="24" height="25" viewBox="0 0 24 25" fill="none" xmlns="http://www.w3.org/2000/svg">
<g clip-path="url(#clip0_216_54)">
<path d="M8.448 23.8206C9.6 24.1686 10.764 24.3726 12 24.3726C15.1826 24.3726 18.2348 23.1083 20.4853 20.8578C22.7357 18.6074 24 15.5552 24 12.3726C24 10.7967 23.6896 9.23626 23.0866 7.78036C22.4835 6.32445 21.5996 5.00158 20.4853 3.88728C19.371 2.77297 18.0481 1.88906 16.5922 1.286C15.1363 0.682948 13.5759 0.372559 12 0.372559C10.4241 0.372559 8.86371 0.682948 7.4078 1.286C5.95189 1.88906 4.62902 2.77297 3.51472 3.88728C1.26428 6.13771 0 9.18996 0 12.3726C0 17.4726 3.204 21.8526 7.728 23.5806C7.62 22.6446 7.512 21.0966 7.728 20.0286L9.108 14.1006C9.108 14.1006 8.76 13.4046 8.76 12.3006C8.76 10.6446 9.792 9.40856 10.968 9.40856C12 9.40856 12.48 10.1646 12.48 11.1366C12.48 12.1686 11.796 13.6446 11.448 15.0606C11.244 16.2366 12.072 17.2686 13.272 17.2686C15.408 17.2686 17.064 14.9886 17.064 11.7726C17.064 8.89256 15 6.92456 12.036 6.92456C8.652 6.92456 6.66 9.44456 6.66 12.0966C6.66 13.1286 6.996 14.1726 7.548 14.8566C7.656 14.9286 7.656 15.0246 7.62 15.2046L7.272 16.5126C7.272 16.7166 7.14 16.7886 6.936 16.6446C5.4 15.9726 4.512 13.7886 4.512 12.0246C4.512 8.23256 7.2 4.78856 12.384 4.78856C16.512 4.78856 19.728 7.75256 19.728 11.6886C19.728 15.8166 17.172 19.1286 13.512 19.1286C12.348 19.1286 11.208 18.5046 10.8 17.7726L9.996 20.6166C9.72 21.6486 8.964 23.0286 8.448 23.8566V23.8206Z" fill="white"/>
</g>
<defs>
<clipPath id="clip0_216_54">
<rect width="24" height="24" fill="white" transform="translate(0 0.372559)"/>
</clipPath>
</defs>
</svg>
